Patient4_TMGait_0pt6_01_right_20_EMG.mot
version=1
nRows=23
nColumns=33
inDegrees=no
endheader
time	1LAddLong	2LGlutMax	3LGlutMed	4LIliopsoas	5LSemiMemb	6LBicFemLong	7LRecFem	8LVastMed	9LVastLat	10LGasMed	11LTibAnt	12lTibPost	13LPeroneusLong	14LSol	15LExtDigLong	16LFlexDigLong	17RAddLong	18RGlutMax	19RGlutMed	20RIliopsoas	21RSemiMemb	22RBicFemLong	23RRecFem	24RVastMed	25RVastLat	26RGasMed	27RTibAnt	28RTibPost	29RPeroneusLong	30RSol	31RExtDigLong	32RFlexDigLong
23.71	0.004425	-0.12543	0.034332	0.037537	-0.046997	0.009918	-0.049591	0.011444	-0.033875	-0.037537	-0.032349	-0.010376	0.021515	-0.059052	-0.19684	0.005035	-0.040741	-0.17166	0.51117	0.00412	0.027924	-0.006714	0.11963	-0.001831	-0.031738	-0.014343	-0.013275	-0.006256	-0.32135	0.017853	-0.002136	-0.000458
23.711	0.012207	-0.14877	0.13382	0.03418	-0.019226	0.002747	-0.16678	0.014496	0.019684	-0.022125	-0.041809	0.001068	0.098267	-0.036926	-0.19547	-0.005341	-0.032959	-0.11704	0.56412	0.094757	0.035553	0.019379	0.077515	-0.03067	-0.047913	-0.020599	-0.035706	-0.002899	-0.26443	0.08316	-0.00061	-0.006561
23.712	0.02594	-0.11566	-0.009155	0.013123	0.009918	-0.001984	-0.11643	0.002441	0.057678	-0.021667	-0.000153	-0.004425	0.11322	0.095978	-0.069427	-0.002594	-0.049286	-0.1767	0.49072	0.15045	0.024567	0.020294	0.092316	-0.027161	-0.027924	-0.00946	0.006409	0.000153	-0.17364	0.083466	-0.00351	-0.009308
23.713	-0.00412	-0.075836	0.02594	0.005646	0.02594	0.035248	0.03479	-0.003204	0.014343	0.000916	0.009308	0.007782	0.095978	0.080872	0.12985	0.005188	-0.047913	-0.13565	0.29419	0.056152	0.03067	0.009003	0.065002	-0.063629	-0.04715	-0.010223	0.21362	-0.002594	0.13275	0.016174	-0.003052	0.007324
23.714	-0.016327	-0.022736	0.071411	-0.007477	0.010986	0.013275	0.03006	-0.007935	-0.12726	-0.012817	0.00412	-0.00351	0.11368	0.058289	0.21194	-0.001221	-0.030975	-0.18509	0.16327	-0.012665	0.033112	0.029449	0.045319	-0.056915	-0.026398	-0.005798	0.30075	-0.002136	0.28732	-0.002136	-0.004578	-0.001678
23.715	0.002289	-0.080719	-0.017548	0.005798	0.01358	0.004578	-0.054779	0.008087	-0.057678	0.029144	-0.083313	0.001068	0.05249	-0.014038	0.24551	-0.001526	0.035706	-0.15289	0.014954	0.057526	0.05661	0.028534	0.040131	-0.1088	-0.041504	-0.011749	0.032043	-0.003204	-0.32959	0.028687	-0.004425	-0.000305
23.716	0.010986	-0.079651	-0.047607	0.017395	0.006409	-0.00061	-0.068512	0.001831	-0.002899	0.040588	-0.19394	0.00885	0.005035	-0.071716	0.29709	-0.006256	0.19333	-0.12253	0.3093	0.014191	0.05722	0.027008	0.015411	-0.13779	-0.032806	-0.014954	-0.051727	-0.005341	-0.4715	0.041962	-0.003357	0.003357
23.717	-0.005646	-0.027161	0.092621	0.014801	0.008392	0.005035	-0.01709	-0.011749	-0.009155	0.022278	-0.12573	-0.008087	-0.031433	-0.11276	0.60577	-0.005798	0.31052	-0.029144	0.38101	0.085297	-0.06012	-0.006866	0.0177	-0.22385	-0.040588	-0.007324	0.016479	-0.002289	-0.2182	0.032196	-0.002899	0.015717
23.718	-0.009766	-0.025787	0.089874	-0.009766	-0.001984	0.002289	0.025635	-0.00885	0.01358	0.012054	0.029907	0.003204	0.009003	-0.11856	0.067749	0.00412	0.34317	-0.041656	0.51651	0.13031	-0.1506	-0.029602	0.025024	-0.2298	-0.034485	-0.015869	0.081177	-0.002136	-0.18799	0.06073	-0.00412	0.007019
23.719	-0.010376	-0.048828	0.05188	-0.014038	-0.001831	0.021973	0.045013	-0.001678	0.008698	-0.006256	0.17181	0.001678	0.079346	-0.049744	0.14816	0.006866	0.23422	-0.021057	0.48737	0.14755	-0.14008	-0.033417	-0.002441	-0.27023	-0.041962	-0.005798	0.11581	-0.00351	-0.2887	0.036621	-0.010376	0.007172
23.72	-0.003815	-0.04303	0.019836	0.014801	-0.006714	0.028839	0.061035	0.003204	0.012665	-0.034027	0.31082	-0.000305	0.17075	0.059814	-0.10742	0.010529	0.069733	0.06485	0.29251	0.014801	0.044861	-0.014496	-0.006409	-0.21469	-0.046844	-0.010223	0.18051	-0.000763	-0.42465	-0.033875	-0.005035	0.01297
23.721	0.008545	-0.013885	0.040283	-0.001068	-0.003204	0.018158	0.063171	-0.002747	0.022278	-0.057983	0.45837	-0.002899	0.023956	0.13504	0.30045	0.002899	-0.080414	0.064087	0.19073	-0.088196	0.21851	-0.014648	-0.045319	-0.13443	-0.027008	-0.010223	0.24445	-0.000763	-0.45044	-0.057373	-0.003662	0.016022
23.722	-0.002747	-0.058746	0.052032	-0.009308	-0.003204	0.025177	0.067444	-0.009766	0.019226	-0.037537	0.39566	0.001526	-0.085297	0.10834	0.54733	-0.010529	-0.18585	0.048523	0.22171	-0.12985	0.13153	0.015259	-0.055847	-0.10071	-0.025482	-0.006256	0.27939	-0.002747	0.078125	-0.056305	-0.00473	0.014801
23.723	-0.00351	-0.055695	0.001678	0.010681	-0.012665	0.023651	0.064087	-0.005035	0.025024	-0.017548	0.054779	-0.001831	-0.049133	0.041504	-0.56183	-0.014343	-0.23529	0.06134	0.48874	-0.13412	-0.055389	0.058594	-0.054321	0.001373	-0.01709	-0.004883	0.29312	-0.003204	0.2121	-0.058289	-0.010681	0.011597
23.724	-0.006561	-0.059509	-0.037079	0.0177	-0.021667	-0.009155	0.038452	-0.00061	0.018921	0.000153	-0.439	-0.004425	0.06134	-0.078583	-0.72632	-0.014648	-0.21683	0.066681	0.44723	-0.11063	-0.098267	0.089264	-0.034485	0.06546	-0.009766	-0.002441	0.20172	-0.003357	0.30014	-0.061035	-0.003815	0.009155
23.725	-0.009918	-0.059814	-0.032349	0.002747	-0.037537	-0.054626	0.042419	-0.010681	0.01297	-0.008087	-0.29938	-0.012665	0.1799	-0.17151	-0.60257	-0.006866	-0.17425	0.052338	0.38223	-0.0914	-0.028076	0.086975	-0.037079	0.075226	-0.015564	0.001221	0.026703	-0.003204	0.35065	-0.021057	-0.001678	0.011444
23.726	-0.017242	-0.019073	-0.027161	0.005798	0.002289	-0.14801	0.067749	0.014801	0.015259	-0.000458	-0.15686	-0.003204	0.21103	-0.10559	-0.50705	-0.011139	-0.088501	0.073242	0.36774	-0.012054	0.014038	0.05127	-0.019684	0.12436	-0.010529	-0.009155	0.28732	-0.004272	0.39581	0.003815	-0.001678	-0.003662
23.727	0.00061	-0.027313	-0.04776	0.013733	0.05249	-0.11978	0.08255	0.001984	0.019836	-0.006256	-0.092468	0.005798	-0.10162	-0.036469	-0.13733	-0.013123	-0.082092	0.017548	0.30609	0.066986	0.022125	0.05722	0.00473	0.10895	-0.011444	-0.012054	-0.13672	-0.002289	0.41367	-0.006714	-0.005646	-0.00351
23.728	-0.000916	-0.075073	-0.043793	0.005493	0.001068	-0.069275	0.075378	-0.002289	0.021667	-0.010986	-0.048523	-0.008392	0.12253	-0.11368	0.097809	-0.002747	-0.058441	0.020447	0.29587	0.083923	0.032043	0.073853	0.020752	0.10376	0.003052	-0.010986	-0.40924	-0.005646	-0.050507	0.002747	-0.003815	-0.00473
23.729	0.009155	-0.05127	-0.070953	0.017242	-0.022583	-0.00412	0.075378	0.003204	0.010529	0.010071	-0.049286	0.002899	0.46722	-0.13901	-0.11444	-0.016327	-0.026855	0.021057	0.38193	0.070343	-0.035858	0.07843	0.009918	0.1059	0.001526	-0.00824	-0.49774	-0.000153	-0.75775	-0.037079	0.000153	-0.010681
23.73	0.017395	-0.052948	-0.046844	0.007172	-0.04425	0.069885	0.044556	0.005341	0.02594	-0.001526	-0.0383	-0.00824	0.26947	-0.11765	-0.040436	0.005646	0.004883	0.00061	0.34103	0.053711	-0.11292	0.095367	0.04303	0.033417	-0.03006	-0.005341	-0.52826	0.001984	-0.090637	-0.084534	-0.000763	0.002136
23.731	0.016937	-0.027924	0.024567	0.013733	-0.001373	0.10483	0.065308	0.020752	0.023499	0.024872	-0.007629	-0.005951	-0.44571	-0.062408	-0.10437	0.003815	0.053406	0.004272	0.31036	0.04303	-0.15243	0.076294	0.03418	0.064087	-0.036469	-0.006714	-0.16953	0.000305	0.40039	-0.065308	-0.00061	0.000763
23.732	0.007782	-0.023041	0.096436	-0.001068	-0.01297	0.077057	0.07843	0.019836	0.027771	0.021515	0.031433	-0.010834	-0.087128	-0.017548	0.083923	-0.008087	0.077972	0.019836	0.18875	-0.007324	-0.11978	0.064087	0.057068	0.039063	-0.032654	-0.016937	0.42496	0.002136	0.37384	0.019379	-0.001831	-0.007629
